<svg id="Capa_1" enable-background="new 0 0 511.745 511.745" height="512" viewBox="0 0 511.745 511.745" width="512" xmlns="http://www.w3.org/2000/svg"><g><g><path d="m481.284 310.691-35.819-70.354c-1.707-3.352-5.15-5.463-8.912-5.463h-180.68-180.682c-3.762 0-7.205 2.111-8.912 5.463l-35.819 70.354c-1.578 3.101-1.432 6.798.386 9.764s5.047 4.773 8.525 4.773h12.482v176.517c0 5.522 4.477 10 10 10h388.007c5.523 0 10-4.478 10-10v-176.516h12.511c3.479 0 6.708-1.808 8.525-4.773 1.82-2.967 1.966-6.664.388-9.765zm-50.861-55.817 25.637 50.354h-158.238l-25.637-50.354zm-349.101 0h158.238l-25.637 50.354h-158.238zm358.54 236.871h-173.989v-55.423c0-5.522-4.477-10-10-10s-10 4.478-10 10v55.423h-174.018v-166.516h148.199c3.762 0 7.205-2.11 8.912-5.463l16.907-33.209v59.966c0 5.522 4.477 10 10 10s10-4.478 10-10v-59.966l16.907 33.209c1.707 3.353 5.15 5.463 8.912 5.463h148.17z"/><path d="m170.36 436.98h-56.942c-5.523 0-10 4.478-10 10s4.477 10 10 10h56.942c5.523 0 10-4.478 10-10s-4.477-10-10-10z"/><path d="m255.873 205.468c56.584 0 102.62-46.093 102.62-102.748-.001-56.64-46.036-102.72-102.62-102.72-56.6 0-102.648 46.08-102.648 102.72 0 56.655 46.047 102.748 102.648 102.748zm0-185.468c45.557 0 82.62 37.108 82.62 82.72 0 45.628-37.063 82.748-82.62 82.748-45.572 0-82.648-37.12-82.648-82.748 0-45.612 37.075-82.72 82.648-82.72z"/><path d="m211.039 117.718 26.617 22.562c1.813 1.537 4.107 2.372 6.466 2.372.284 0 .569-.012.854-.036 2.654-.228 5.107-1.504 6.816-3.547l50.09-59.866c3.544-4.235 2.983-10.542-1.252-14.087-4.236-3.542-10.542-2.983-14.086 1.253l-43.632 52.147-18.939-16.055c-4.213-3.571-10.524-3.053-14.094 1.162-3.573 4.214-3.053 10.523 1.16 14.095z"/><path d="m59.42 112.72h43.266c5.523 0 10-4.478 10-10s-4.477-10-10-10h-43.266c-5.523 0-10 4.478-10 10s4.477 10 10 10z"/><path d="m54.755 43.137 43.266 22.819c1.488.785 3.083 1.157 4.657 1.157 3.59 0 7.062-1.939 8.854-5.337 2.576-4.885.705-10.934-4.18-13.51l-43.267-22.819c-4.883-2.576-10.934-.706-13.51 4.18-2.576 4.885-.705 10.934 4.18 13.51z"/><path d="m50.572 175.807c1.791 3.4 5.263 5.342 8.856 5.342 1.571 0 3.166-.371 4.652-1.154l43.266-22.79c4.886-2.574 6.761-8.622 4.187-13.508-2.574-4.887-8.622-6.761-13.508-4.188l-43.266 22.79c-4.886 2.574-6.76 8.622-4.187 13.508z"/><path d="m409.031 112.72h43.266c5.523 0 10-4.478 10-10s-4.477-10-10-10h-43.266c-5.523 0-10 4.478-10 10s4.477 10 10 10z"/><path d="m409.039 67.113c1.573 0 3.169-.372 4.657-1.157l43.266-22.819c4.885-2.576 6.756-8.625 4.18-13.51-2.577-4.885-8.625-6.758-13.51-4.18l-43.266 22.819c-4.885 2.576-6.756 8.625-4.18 13.51 1.792 3.398 5.262 5.337 8.853 5.337z"/><path d="m404.37 157.204 43.266 22.79c1.487.783 3.081 1.154 4.652 1.154 3.593 0 7.065-1.941 8.856-5.342 2.574-4.886.699-10.934-4.187-13.508l-43.266-22.79c-4.887-2.574-10.934-.7-13.508 4.188-2.574 4.886-.699 10.934 4.187 13.508z"/><path d="m255.873 381.423c-5.523 0-10 4.478-10 10v.057c0 5.522 4.477 9.972 10 9.972s10-4.506 10-10.028-4.477-10.001-10-10.001z"/></g></g></svg>